<svg width="110" height="110" viewBox="0 0 110 110" fill="none" xmlns="http://www.w3.org/2000/svg">
<circle cx="54.9987" cy="55" r="9.16667" stroke="#292929" stroke-width="4.58333"/>
<path d="M24.749 26.9459C20.4877 31.5388 17.3934 36.9894 15.5917 42.8289L22.9219 47.061C29.033 50.5892 29.033 59.4099 22.9219 62.9381L15.5839 67.1747C16.4786 70.0624 17.7068 72.896 19.2821 75.6245C20.8573 78.3529 22.6972 80.8333 24.7505 83.0519L32.0887 78.8152C38.1998 75.287 45.8387 79.6973 45.8387 86.7538L45.8387 95.2182C51.7967 96.5777 58.0642 96.6233 64.1724 95.2293L64.1724 86.7541C64.1724 79.6976 71.8113 75.2873 77.9224 78.8156L85.2622 83.0532C89.5235 78.4603 92.6178 73.0097 94.4195 67.1702L87.089 62.9379C80.9779 59.4097 80.9779 50.589 87.089 47.0608L94.4272 42.8241C93.5325 39.9365 92.3044 37.1029 90.7291 34.3745C89.1539 31.646 87.3139 29.1656 85.2605 26.9469L77.9224 31.1836C71.8113 34.7118 64.1724 30.3015 64.1724 23.245L64.1724 14.7808C58.2144 13.4213 51.9469 13.3758 45.8387 14.7697L45.8387 23.2449C45.8387 30.3014 38.1998 34.7117 32.0887 31.1835L24.749 26.9459Z" stroke="#292929" stroke-width="4.58333" stroke-linejoin="round"/>
</svg>
